#!OML:ASF E:\Steps\Project 1\Capture day 1\Session 2\Subject.ASF
:FULLY-SPECIFIED
:DEGREES
646
root 9.17954 18.5754 -4.79598 -155.286 -1.15175 178.751
lowerback -19.7922 -3.64124 -3.99336
upperback 0.899697 -4.22185 1.82671
thorax 12.6082 -2.34596 3.02076
lowerneck -3.13903 -2.10874 -1.24941
upperneck 20.4648 -1.94027 2.43876
head 6.77742 -0.341809 0.922834
rclavicle 1.39398e-014 -5.45167e-014
rhumerus -42.6046 -16.5544 -74.3255
rradius 33.9929
rwrist -1.97013
rhand -9.1461 -51.1421
rfingers 7.12502
rthumb 16.8058 -80.4349
lclavicle 1.39398e-014 -5.45167e-014
lhumerus -30.3398 -0.694871 84.7471
lradius 26.6522
lwrist -2.6716
lhand -19.8825 -13.1305
lfingers 7.12502
lthumb 6.45329 16.7512
rfemur -65.2045 3.33871 19.5533
rtibia 59.2969
rfoot -29.4179 -8.37729
rtoes -26.1019
lfemur -19.2064 -10.304 -21.3293
ltibia 14.983
lfoot -11.32 2.54214
ltoes -32.6176
647
root 9.20302 18.6028 -4.85168 -155.145 -1.31501 178.662
lowerback -19.7962 -3.62318 -3.82811
upperback 0.811751 -4.24782 1.87034
thorax 12.502 -2.34874 2.96891
lowerneck -3.13864 -2.13566 -1.40142
upperneck 20.5876 -1.95962 2.5137
head 6.81992 -0.348928 0.972673
rclavicle 4.79568e-014 -1.63997e-014
rhumerus -42.4552 -16.8156 -74.2057
rradius 34.0682
rwrist -2.04495
rhand -9.08042 -52.121
rfingers 7.12502
rthumb 16.869 -81.4083
lclavicle 4.79568e-014 -1.63997e-014
lhumerus -30.3609 -0.469686 84.6669
lradius 26.3054
lwrist -3.02442
lhand -19.5244 -13.0307
lfingers 7.12502
lthumb 6.79894 16.8401
rfemur -64.8949 3.34734 19.5281
rtibia 58.9619
rfoot -29.3348 -8.47702
rtoes -25.133
lfemur -19.3303 -10.3472 -21.2031
ltibia 15.1718
lfoot -10.7405 1.86306
ltoes -31.9715
648
root 9.22589 18.6329 -4.91183 -155.081 -1.29996 178.628
lowerback -19.8779 -3.59943 -3.67596
upperback 0.807245 -4.25434 1.89614
thorax 12.5344 -2.34357 2.90562
lowerneck -2.84962 -2.12538 -1.25397
upperneck 20.2715 -1.93899 2.31512
head 6.66326 -0.355 0.884359
rclavicle -7.25564e-015 -1.48095e-014
rhumerus -42.2036 -16.9473 -74.2444
rradius 34.191
rwrist -2.35846
rhand -9.24024 -53.8158
rfingers 7.12502
rthumb 16.7152 -83.1162
lclavicle -7.25564e-015 -1.48095e-014
lhumerus -30.3651 -0.0834808 84.4689
lradius 25.9317
lwrist -3.62495
lhand -19.3581 -13.0819
lfingers 7.12502
lthumb 6.95946 16.7837
rfemur -64.4019 3.4978 19.5161
rtibia 58.4179
rfoot -29.2738 -8.43979
rtoes -24.6326
lfemur -19.3578 -10.4164 -21.0817
ltibia 15.4063
lfoot -10.2967 1.67002
ltoes -32.2721
649
root 9.24367 18.6707 -4.97466 -155.096 -1.37686 178.608
lowerback -19.8382 -3.55508 -3.39463
upperback 0.783459 -4.26421 1.8931
thorax 12.4623 -2.32914 2.74138
lowerneck -2.30357 -2.0384 -0.946047
upperneck 19.7885 -1.79627 1.9607
head 6.40396 -0.303868 0.728232
rclavicle 3.39922e-014 -1.5207e-014
rhumerus -42.1594 -17.0922 -74.2891
rradius 34.4331
rwrist -2.72241
rhand -9.66426 -54.4204
rfingers 7.12502
rthumb 16.3069 -83.7547
lclavicle 3.39922e-014 -1.5207e-014
lhumerus -30.5232 0.104618 84.3253
lradius 25.6928
lwrist -4.11945
lhand -19.4562 -13.3743
lfingers 7.12502
lthumb 6.86482 16.4944
rfemur -63.7959 3.52111 19.5568
rtibia 57.9232
rfoot -29.3564 -8.23421
rtoes -23.6741
lfemur -19.3416 -10.5272 -20.9788
ltibia 15.8115
lfoot -9.69135 1.61919
ltoes -30.3918
650
root 9.26133 18.712 -5.03761 -155.077 -1.49254 178.551
lowerback -19.7886 -3.55637 -3.14695
upperback 0.796128 -4.32822 1.91947
thorax 12.4363 -2.3435 2.61213
lowerneck -3.29919 -2.14915 -1.09351
upperneck 21.0275 -1.85556 1.91776
head 6.98009 -0.303408 0.738712
rclavicle 1.86858e-014 -1.59028e-015
rhumerus -41.99 -17.1995 -74.3677
rradius 34.7062
rwrist -3.04876
rhand -9.89468 -54.3242
rfingers 7.12502
rthumb 16.0851 -83.6766
lclavicle 1.86858e-014 -1.59028e-015
lhumerus -30.5485 0.101388 84.2727
lradius 25.5476
lwrist -4.03132
lhand -19.4245 -13.2903
lfingers 7.12502
lthumb 6.8954 16.5774
rfemur -63.2681 3.48014 19.5918
rtibia 57.5712
rfoot -29.59 -8.08334
rtoes -23.1093
lfemur -19.3534 -10.549 -20.9065
ltibia 16.2096
lfoot -8.90068 1.40198
ltoes -30.2713
651
root 9.28363 18.7537 -5.10145 -155.015 -1.45267 178.61
lowerback -19.8163 -3.50144 -2.89093
upperback 0.79835 -4.32552 1.98929
thorax 12.4402 -2.32931 2.54412
lowerneck -3.14231 -1.91804 -0.729044
upperneck 20.5407 -1.53457 1.46753
head 6.7825 -0.180285 0.55077
rclavicle 1.17283e-014 1.35174e-014
rhumerus -41.7999 -17.117 -74.4892
rradius 35.0344
rwrist -3.52026
rhand -9.79188 -53.6831
rfingers 7.12502
rthumb 16.184 -83.0275
lclavicle 1.17283e-014 1.35174e-014
lhumerus -30.5745 0.138493 84.2527
lradius 25.4162
lwrist -3.95795
lhand -19.4185 -13.1659
lfingers 7.12502
lthumb 6.90121 16.7016
rfemur -62.729 3.70585 19.6755
rtibia 57.0986
rfoot -29.4707 -8.01457
rtoes -23.5345
lfemur -19.4086 -10.2769 -20.7305
ltibia 16.5873
lfoot -7.975 1.33025
ltoes -31.6071
652
root 9.30884 18.7964 -5.16384 -154.91 -1.41427 178.712
lowerback -19.9242 -3.37742 -2.5929
upperback 0.762629 -4.23701 2.01393
thorax 12.4327 -2.27114 2.42552
lowerneck -3.11522 -1.93577 -0.218574
upperneck 20.6113 -1.47898 0.839803
head 6.79015 -0.159808 0.267539
rclavicle -7.25564e-015 7.35503e-015
rhumerus -41.7217 -17.0292 -74.6712
rradius 35.3586
rwrist -4.09474
rhand -9.47754 -51.8757
rfingers 7.12502
rthumb 16.4867 -81.1952
lclavicle -7.25564e-015 7.35503e-015
lhumerus -30.5822 0.353832 84.1261
lradius 25.212
lwrist -4.3508
lhand -19.4913 -13.3744
lfingers 7.12502
lthumb 6.83094 16.4954
rfemur -62.0294 4.02369 19.7508
rtibia 56.2513
rfoot -28.7516 -8.1548
rtoes -25.5899
lfemur -19.5828 -9.9799 -20.4872
ltibia 17.0806
lfoot -6.98854 1.30014
ltoes -32.9693
653
root 9.33242 18.8425 -5.22755 -154.81 -1.42191 178.618
lowerback -20.1451 -3.29718 -2.44787
upperback 0.793044 -4.15506 1.96147
thorax 12.5727 -2.22169 2.29987
lowerneck -3.36394 -1.9441 -0.508201
upperneck 20.7067 -1.5606 1.33626
head 6.87225 -0.181487 0.469549
rclavicle -1.13307e-014 1.21259e-014
rhumerus -41.5466 -16.9924 -74.8956
rradius 35.5804
rwrist -4.58561
rhand -9.09322 -50.9638
rfingers 7.12502
rthumb 16.8567 -80.2522
lclavicle -1.13307e-014 1.21259e-014
lhumerus -30.4838 0.37689 83.9846
lradius 25.0784
lwrist -4.46207
lhand -19.2961 -13.3719
lfingers 7.12502
lthumb 7.0193 16.4917
rfemur -61.3202 4.16914 19.6569
rtibia 55.3459
rfoot -29.553 -7.80778
rtoes -21.7176
lfemur -19.8118 -9.81829 -20.4687
ltibia 17.676
lfoot -6.07686 1.43505
ltoes -36.9278
654
root 9.35807 18.8933 -5.28993 -154.723 -1.44099 178.405
lowerback -20.3027 -3.27002 -2.46509
upperback 0.791688 -4.10744 1.91782
thorax 12.6558 -2.19907 2.26906
lowerneck -3.25761 -2.07757 -0.88376
upperneck 20.6786 -1.7727 1.71687
head 6.85414 -0.279718 0.641551
rclavicle 9.44227e-015 -2.08724e-014
rhumerus -41.4098 -16.9758 -75.0447
rradius 35.7825
rwrist -4.89489
rhand -8.93108 -51.287
rfingers 7.12502
rthumb 17.0128 -80.562
lclavicle 9.44227e-015 -2.08724e-014
lhumerus -30.6221 0.424172 83.8726
lradius 25.131
lwrist -4.42278
lhand -19.0128 -13.431
lfingers 7.12502
lthumb 7.29277 16.4233
rfemur -60.7699 4.2621 19.452
rtibia 54.6889
rfoot -30.0346 -7.81109
rtoes -20.0702
lfemur -20.1044 -9.66432 -20.5546
ltibia 18.335
lfoot -5.16451 2.10046
ltoes -41.8715
655
root 9.38574 18.9461 -5.34992 -154.649 -1.5229 178.331
lowerback -20.3425 -3.24034 -2.37966
upperback 0.72831 -4.09425 1.93315
thorax 12.5993 -2.18897 2.24104
lowerneck -2.84612 -1.9125 -0.736546
upperneck 20.5877 -1.48843 1.49241
head 6.74539 -0.14191 0.566222
rclavicle 1.46107e-014 -3.37934e-015
rhumerus -41.3464 -16.9111 -75.2033
rradius 36.0281
rwrist -5.24169
rhand -9.14451 -51.6141
rfingers 7.12502
rthumb 16.8073 -80.9066
lclavicle 1.46107e-014 -3.37934e-015
lhumerus -30.8909 0.569388 83.7344
lradius 25.2314
lwrist -4.49897
lhand -19.0123 -13.5539
lfingers 7.12502
lthumb 7.29323 16.3004
rfemur -60.2562 4.39813 19.4086
rtibia 54.1261
rfoot -29.8309 -8.29171
rtoes -21.8822
lfemur -20.4504 -9.50034 -20.4219
ltibia 19.0199
lfoot -4.21853 1.64033
ltoes -41.197
656
root 9.40822 19.0023 -5.41433 -154.653 -1.57937 178.229
lowerback -20.4095 -3.21242 -2.2805
upperback 0.721407 -4.07982 1.92183
thorax 12.6204 -2.17552 2.17377
lowerneck -3.41404 -2.11307 -0.968618
upperneck 21.538 -1.69848 1.66998
head 7.16094 -0.207695 0.653299
rclavicle -1.71949e-014 8.34896e-015
rhumerus -41.1717 -16.8165 -75.3709
rradius 36.1475
rwrist -5.50002
rhand -9.22449 -51.8662
rfingers 7.12502
rthumb 16.7303 -81.1653
lclavicle -1.71949e-014 8.34896e-015
lhumerus -30.9633 0.494346 83.6697
lradius 25.1854
lwrist -4.19641
lhand -19.4006 -13.4327
lfingers 7.12502
lthumb 6.91849 16.4343
rfemur -59.5492 4.41968 19.3852
rtibia 53.4321
rfoot -29.1348 -8.89989
rtoes -26.0908
lfemur -20.7324 -9.33481 -20.3734
ltibia 19.708
lfoot -3.10427 1.36532
ltoes -38.3476
